<?xml version="1.0" encoding="UTF-8" standalone="no"?>
<!DOCTYPE svg PUBLIC "-//W3C//DTD SVG 1.1//EN" "http://www.w3.org/Graphics/SVG/1.1/DTD/svg11.dtd">
<svg width="100%" height="100%" viewBox="0 0 128 128" version="1.1" xmlns="http://www.w3.org/2000/svg" xmlns:xlink="http://www.w3.org/1999/xlink" xml:space="preserve" xmlns:serif="http://www.serif.com/" style="fill-rule:evenodd;clip-rule:evenodd;stroke-linejoin:round;stroke-miterlimit:2;">
    <g transform="matrix(1,0,0,1,-5762.44,-2541.07)">
        <g transform="matrix(1.10383,0,0,1.09249,-654.25,-292.797)">
            <ellipse cx="5871.1" cy="2652.53" rx="57.98" ry="58.582" style="fill:white;"/>
        </g>
        <g id="favicon" transform="matrix(0.256,0,0,0.256,5762.44,2541.07)">
            <rect x="0" y="0" width="500" height="500" style="fill:none;"/>
            <g transform="matrix(2.65042,-2.65042,2.77522,2.77522,-22952.6,8804.48)">
                <g transform="matrix(0.720673,0,0,0.601898,5676.76,1985.12)">
                    <path d="M414.712,1011.53C434.071,1011.53 449.788,1045.13 449.788,1086.51C449.788,1127.9 434.071,1161.5 414.712,1161.5C395.353,1161.5 379.636,1127.9 379.636,1086.51C379.636,1045.13 395.353,1011.53 414.712,1011.53ZM414.712,1025C410.177,1025 406.345,1028.85 402.946,1034.18C395.431,1045.96 390.89,1065.09 390.89,1086.51C390.89,1107.94 395.431,1127.06 402.946,1138.84C406.345,1144.17 410.177,1148.02 414.712,1148.02C419.247,1148.02 423.078,1144.17 426.478,1138.84C433.993,1127.06 438.534,1107.94 438.534,1086.51C438.534,1065.09 433.993,1045.96 426.478,1034.18C423.078,1028.85 419.247,1025 414.712,1025Z" style="fill:rgb(104,40,223);"/>
                </g>
                <g transform="matrix(0.506911,0,0,0.506911,5619.7,2081.2)">
                    <path d="M739.443,1189.6C711.921,1189.6 689.576,1149.7 689.576,1100.56C689.576,1051.42 711.921,1011.53 739.443,1011.53C788.616,1011.53 828.479,1051.39 828.479,1100.56C828.479,1149.74 788.616,1189.6 739.443,1189.6ZM774.789,1163.35C796.691,1150.99 811.479,1127.5 811.479,1100.56C811.479,1073.62 796.691,1050.14 774.789,1037.78C769.108,1034.58 762.948,1032.12 756.443,1030.55C756.443,1030.55 745.891,1027.53 739.443,1027.53C732.996,1027.53 727.549,1032.1 722.715,1038.43C712.032,1052.41 705.576,1075.12 705.576,1100.56C705.576,1126.01 712.032,1148.71 722.715,1162.7C727.549,1169.03 732.996,1173.6 739.443,1173.6C745.891,1173.6 756.443,1170.58 756.443,1170.58C762.948,1169.01 769.108,1166.55 774.789,1163.35Z" style="fill:rgb(104,40,223);"/>
                </g>
            </g>
        </g>
    </g>
</svg>
