<?xml version="1.0" encoding="UTF-8" standalone="no"?>
<!DOCTYPE svg PUBLIC "-//W3C//DTD SVG 1.1//EN" "http://www.w3.org/Graphics/SVG/1.1/DTD/svg11.dtd">
<svg width="100%" height="100%" viewBox="0 0 346 347" version="1.1" xmlns="http://www.w3.org/2000/svg" xmlns:xlink="http://www.w3.org/1999/xlink" xml:space="preserve" xmlns:serif="http://www.serif.com/" style="fill-rule:evenodd;clip-rule:evenodd;stroke-linejoin:round;stroke-miterlimit:2;">
    <g transform="matrix(1,0,0,1,-1787.89,0)">
        <g transform="matrix(0.691989,0,0,0.692766,1787.89,0)">
            <rect id="symbol" x="0" y="0" width="500" height="500" style="fill:none;"/>
            <g id="symbol1" serif:id="symbol">
                <g transform="matrix(4.97557,0,0,7.02168,-300.467,-1571.25)">
                    <g transform="matrix(0.300651,-0.212803,0.300651,0.212803,-703.6,-149.362)">
                        <path d="M368.343,2253.14L370.839,2247.23C374.727,2238.02 383.753,2232.03 393.75,2232.03C403.747,2232.03 412.773,2238.02 416.661,2247.23L419.157,2253.14L425.104,2250.73C434.366,2246.97 444.981,2249.11 452.05,2256.18C459.119,2263.25 461.268,2273.87 457.504,2283.13L455.088,2289.08L461.002,2291.57C470.212,2295.46 476.198,2304.49 476.198,2314.48C476.198,2319.7 474.56,2324.78 471.515,2329.01L461.71,2342.63L459.01,2359.2C458.171,2364.34 455.736,2369.1 452.05,2372.78C448.363,2376.47 443.611,2378.9 438.466,2379.74L421.9,2382.44L408.277,2392.25C404.045,2395.29 398.964,2396.93 393.75,2396.93C388.536,2396.93 383.455,2395.29 379.223,2392.25L365.6,2382.44L349.034,2379.74C343.889,2378.9 339.137,2376.47 335.45,2372.78C334.505,2371.84 332.389,2369.13 330.983,2364.59C329.365,2359.36 327.021,2348.21 325.935,2342.84C322.679,2338.31 315.985,2329.01 315.985,2329.01C312.94,2324.78 311.302,2319.7 311.302,2314.48C311.302,2304.49 317.288,2295.46 326.498,2291.57L332.412,2289.08L329.996,2283.13C326.232,2273.87 328.381,2263.25 335.45,2256.18C342.519,2249.11 353.134,2246.97 362.396,2250.73L368.343,2253.14ZM325,2314.48C325,2316.83 325.736,2319.11 327.104,2321.01C327.104,2321.01 335.151,2332.19 337.891,2336C338.484,2336.82 338.892,2337.76 339.089,2338.76C340.145,2344.07 343.732,2361.69 345.136,2363.1C346.792,2364.75 348.927,2365.85 351.238,2366.22L369.343,2369.17C370.423,2369.35 371.448,2369.77 372.336,2370.41L387.225,2381.13C389.126,2382.5 391.408,2383.23 393.75,2383.23C396.092,2383.23 398.374,2382.5 400.275,2381.13L415.164,2370.41C416.052,2369.77 417.077,2369.35 418.157,2369.17L436.262,2366.22C438.573,2365.85 440.708,2364.75 442.364,2363.1C444.019,2361.44 445.113,2359.31 445.49,2356.99L448.441,2338.89C448.617,2337.81 449.041,2336.78 449.681,2335.9L460.396,2321.01C461.764,2319.11 462.5,2316.83 462.5,2314.48C462.5,2309.99 459.811,2305.94 455.674,2304.19L440.849,2297.93C439.906,2297.54 439.158,2296.78 438.766,2295.84C438.374,2294.89 438.371,2293.83 438.756,2292.88L444.814,2277.97C446.504,2273.81 445.539,2269.04 442.364,2265.87C439.188,2262.69 434.421,2261.73 430.26,2263.42L415.352,2269.48C414.404,2269.86 413.342,2269.86 412.396,2269.47C411.451,2269.08 410.697,2268.33 410.299,2267.38L404.041,2252.56C402.294,2248.42 398.24,2245.73 393.75,2245.73C389.26,2245.73 385.206,2248.42 383.459,2252.56L377.201,2267.38C376.803,2268.33 376.049,2269.08 375.104,2269.47C374.158,2269.86 373.096,2269.86 372.148,2269.48L357.24,2263.42C353.079,2261.73 348.312,2262.69 345.136,2265.87C341.961,2269.04 340.996,2273.81 342.686,2277.97L348.744,2292.88C349.129,2293.83 349.126,2294.89 348.734,2295.84C348.342,2296.78 347.594,2297.54 346.651,2297.93L331.826,2304.19C327.689,2305.94 325,2309.99 325,2314.48Z" style="fill:white;"/>
                    </g>
                    <g transform="matrix(1.04547,0,0,0.743711,-600.155,-956.673)">
                        <path d="M678.625,1620.93C678.798,1620.46 679.253,1620.13 679.764,1620.13C680.276,1620.12 680.737,1620.44 680.918,1620.91C682.083,1623.98 683.775,1628.42 684.346,1629.92C684.471,1630.25 684.732,1630.51 685.063,1630.63C686.569,1631.19 691.018,1632.84 694.079,1633.97C694.557,1634.15 694.875,1634.6 694.875,1635.11C694.875,1635.62 694.557,1636.07 694.079,1636.25C691.018,1637.38 686.569,1639.03 685.063,1639.59C684.732,1639.71 684.471,1639.97 684.346,1640.29C683.775,1641.79 682.083,1646.24 680.918,1649.3C680.737,1649.78 680.276,1650.09 679.764,1650.09C679.253,1650.09 678.798,1649.76 678.625,1649.28C677.528,1646.23 675.943,1641.82 675.399,1640.31C675.277,1639.97 675.012,1639.7 674.674,1639.58C673.157,1639.02 668.723,1637.38 665.671,1636.25C665.193,1636.07 664.875,1635.62 664.875,1635.11C664.875,1634.6 665.193,1634.15 665.671,1633.97C668.723,1632.84 673.157,1631.2 674.674,1630.64C675.012,1630.51 675.277,1630.25 675.399,1629.91C675.943,1628.4 677.528,1623.99 678.625,1620.93Z" style="fill:white;"/>
                    </g>
                </g>
            </g>
        </g>
    </g>
</svg>
