<?xml version="1.0" encoding="UTF-8" standalone="no"?>
<!DOCTYPE svg PUBLIC "-//W3C//DTD SVG 1.1//EN" "http://www.w3.org/Graphics/SVG/1.1/DTD/svg11.dtd">
<svg width="100%" height="100%" viewBox="0 0 128 128" version="1.1" xmlns="http://www.w3.org/2000/svg" xmlns:xlink="http://www.w3.org/1999/xlink" xml:space="preserve" xmlns:serif="http://www.serif.com/" style="fill-rule:evenodd;clip-rule:evenodd;stroke-linejoin:round;stroke-miterlimit:2;">
    <g transform="matrix(1,0,0,1,-145.308,-489)">
        <g id="Symbol-alt-X" serif:id="Symbol alt X" transform="matrix(1,0,0,1,145.308,489)">
            <rect x="0" y="0" width="128" height="128" style="fill:none;"/>
            <g transform="matrix(1,0,0,1,-145.308,-489)">
                <circle cx="209.308" cy="553" r="64" style="fill:rgb(104,40,223);"/>
            </g>
            <g id="symbol" transform="matrix(1.84163,0,0,1.61667,-41.634,-37.8329)">
                <path d="M54.359,50.489L69.859,50.489C76.758,50.489 82.359,56.09 82.359,62.989C82.359,69.888 76.758,75.489 69.859,75.489L32.359,75.489L32.359,70.516L54.359,50.489ZM69.859,53.91C64.848,53.91 60.78,57.978 60.78,62.989C60.78,68 64.848,72.068 69.859,72.068C74.87,72.068 78.938,68 78.938,62.989C78.938,57.978 74.87,53.91 69.859,53.91Z" style="fill:white;"/>
            </g>
        </g>
    </g>
</svg>
