<?xml version="1.0" encoding="UTF-8" standalone="no"?>
<!DOCTYPE svg PUBLIC "-//W3C//DTD SVG 1.1//EN" "http://www.w3.org/Graphics/SVG/1.1/DTD/svg11.dtd">
<svg width="100%" height="100%" viewBox="0 0 1201 357" version="1.1" xmlns="http://www.w3.org/2000/svg" xmlns:xlink="http://www.w3.org/1999/xlink" xml:space="preserve" xmlns:serif="http://www.serif.com/" style="fill-rule:evenodd;clip-rule:evenodd;stroke-linejoin:round;stroke-miterlimit:2;">
    <g transform="matrix(1,0,0,1,-3710.49,-1530.32)">
        <g transform="matrix(2.40118,0,0,0.71394,3710.49,1530.32)">
            <rect id="horizontal" x="0" y="0" width="500" height="500" style="fill:none;"/>
            <g id="horizontal1" serif:id="horizontal">
                <g transform="matrix(1.02964,0,0,1.07422,-9.70216,-18.5521)">
                    <g transform="matrix(0.637737,0,0,2.05588,-250.771,-2086.59)">
                        <path d="M500.665,1219.14C494.906,1223.29 488.616,1225.58 482.029,1225.58C454.506,1225.58 432.162,1185.68 432.162,1136.54C432.162,1087.4 454.506,1047.51 482.029,1047.51C488.616,1047.51 494.906,1049.79 500.665,1053.94C504.765,1056.89 508.596,1060.8 512.071,1065.49C524.111,1081.75 531.897,1107.54 531.897,1136.54C531.897,1165.55 524.111,1191.33 512.071,1207.59C508.625,1205.67 505.487,1202.49 502.572,1198.68C501.92,1197.82 501.284,1196.94 500.665,1196.02C510.204,1181.91 515.897,1160.43 515.897,1136.54C515.897,1112.65 510.204,1091.17 500.665,1077.06C500.045,1076.14 499.409,1075.26 498.757,1074.41C495.842,1070.59 492.704,1067.41 489.258,1065.49C486.99,1064.22 484.588,1063.51 482.029,1063.51C475.582,1063.51 470.134,1068.08 465.301,1074.41C454.618,1088.39 448.162,1111.1 448.162,1136.54C448.162,1161.98 454.618,1184.69 465.301,1198.68C470.134,1205 475.582,1209.58 482.029,1209.58C484.588,1209.58 486.99,1208.86 489.258,1207.59C492.734,1212.29 496.564,1216.19 500.665,1219.14Z" style="fill:url(#_Linear1);"/>
                    </g>
                    <g transform="matrix(0.637737,0,0,2.05588,-250.771,-2086.59)">
                        <path d="M500.665,1053.94C506.423,1049.79 512.713,1047.51 519.3,1047.51C568.473,1047.51 608.336,1087.37 608.336,1136.54C608.336,1185.71 568.473,1225.58 519.3,1225.58C512.713,1225.58 506.423,1223.29 500.665,1219.14C496.564,1216.19 492.734,1212.29 489.258,1207.59C477.218,1191.33 469.433,1165.55 469.433,1136.54C469.433,1107.54 477.218,1081.75 489.258,1065.49C492.704,1067.41 495.842,1070.59 498.757,1074.41C499.409,1075.26 500.045,1076.14 500.665,1077.06C491.125,1091.17 485.433,1112.65 485.433,1136.54C485.433,1160.43 491.125,1181.91 500.665,1196.02C501.284,1196.94 501.92,1197.82 502.572,1198.68C505.487,1202.49 508.625,1205.67 512.071,1207.59C514.34,1208.86 516.741,1209.58 519.3,1209.58C525.748,1209.58 536.3,1206.56 536.3,1206.56C542.805,1204.99 548.965,1202.53 554.646,1199.32C576.548,1186.97 591.336,1163.48 591.336,1136.54C591.336,1109.6 576.548,1086.12 554.646,1073.76C548.965,1070.55 542.805,1068.1 536.3,1066.52C536.3,1066.52 525.748,1063.51 519.3,1063.51C516.741,1063.51 514.34,1064.22 512.071,1065.49C508.596,1060.8 504.765,1056.89 500.665,1053.94Z" style="fill:url(#_Linear2);"/>
                    </g>
                </g>
                <g transform="matrix(2.4799,0,0,11.7837,-60.6641,-3567.18)">
                    <g transform="matrix(0.300336,0,0,0.213073,-220.597,72.9443)">
                        <path d="M1149.23,1226.8C1164.06,1226.8 1175.73,1219.89 1175.73,1206.06C1175.73,1195.98 1169.97,1189.65 1154.27,1185.62L1145.77,1183.46C1136.27,1181.01 1132.53,1179.14 1132.53,1174.1C1132.53,1169.34 1136.7,1166.75 1142.89,1166.75C1151.97,1166.75 1159.45,1171.36 1164.35,1179.14L1173.85,1169.06C1169.53,1161.14 1159.02,1153.94 1144.05,1153.94C1127.92,1153.94 1117.41,1161.86 1117.41,1174.96C1117.41,1187.78 1127.63,1192.67 1138.72,1195.26L1148.08,1197.57C1155.85,1199.44 1161.18,1201.17 1161.18,1206.35C1161.18,1211.39 1156.72,1213.84 1149.81,1213.84C1137.28,1213.84 1128.64,1206.64 1124.75,1199.58L1115.25,1209.66C1120.57,1220.75 1134.25,1226.8 1149.23,1226.8Z" style="fill:white;"/>
                    </g>
                    <g transform="matrix(0.299848,0,0,0.212234,-219.05,73.9429)">
                        <path d="M1200.06,1249.41C1211.44,1249.41 1219.65,1244.37 1224.69,1230.26L1250.61,1155.23L1232.75,1155.23L1220.22,1194.98L1215.18,1213.7L1210.14,1194.98L1197.47,1155.23L1179.76,1155.23L1202.94,1221.04L1212.88,1221.04L1211.58,1224.93C1208.99,1232.7 1205.53,1235.15 1200.06,1235.15C1193.58,1235.15 1189.26,1231.12 1185.52,1225.79L1177.89,1238.75C1181.77,1244.22 1189.98,1249.41 1200.06,1249.41Z" style="fill:white;"/>
                    </g>
                    <g transform="matrix(0.299848,0,0,0.212234,-218.38,73.9429)">
                        <path d="M1273.5,1225.36L1273.5,1186.05C1273.5,1174.53 1277.53,1166.9 1289.34,1166.9C1300.14,1166.9 1303.02,1172.8 1303.02,1181.44L1303.02,1225.36L1319.29,1225.36L1319.29,1176.54C1319.29,1162 1310.94,1153.79 1297.26,1153.79C1285.7,1153.79 1279.01,1156.73 1273.5,1166.9L1273.5,1155.23L1257.37,1155.23L1257.37,1225.36L1273.5,1225.36Z" style="fill:white;"/>
                    </g>
                    <g transform="matrix(0.299848,0,0,0.213652,-218.925,72.234)">
                        <path d="M1366.67,1226.8C1382.22,1226.8 1391.73,1219.74 1397.05,1211.68L1387.12,1201.31C1384.53,1207.22 1379.05,1213.55 1366.81,1213.55C1355.73,1213.55 1348.38,1206.78 1347.52,1194.26L1397.63,1194.26C1397.92,1192.82 1398.21,1189.79 1398.21,1187.2C1398.21,1167.76 1386.54,1153.79 1365.52,1153.79C1345.79,1153.79 1332.11,1168.34 1332.11,1190.37C1332.11,1212.26 1345.79,1226.8 1366.67,1226.8ZM1365.52,1166.75C1376.17,1166.75 1382.51,1172.8 1383.66,1183.89L1347.66,1183.89C1348.96,1172.51 1355.58,1166.75 1365.52,1166.75Z" style="fill:white;"/>
                    </g>
                    <g transform="matrix(0.299848,0,0,0.212234,-219.858,73.9429)">
                        <path d="M1428.45,1225.36L1428.45,1186.77C1428.45,1175.1 1435.93,1165.89 1444,1165.89C1448.75,1165.89 1450.62,1169.06 1450.62,1172.94L1450.62,1183.89L1465.89,1183.89L1465.89,1169.92C1465.89,1159.55 1459.41,1153.79 1450.62,1153.79C1441.04,1153.79 1434.47,1157.4 1428.45,1167.36L1428.45,1155.23L1412.32,1155.23L1412.32,1225.36L1428.45,1225.36Z" style="fill:white;"/>
                    </g>
                    <g transform="matrix(0.299848,0,0,0.212234,0,-43.2335)">
                        <path d="M356.648,1769.29C350.754,1775.35 342.874,1779.05 334.221,1779.05C315.981,1779.05 301.173,1762.59 301.173,1742.31C301.173,1722.02 315.981,1705.56 334.221,1705.56C342.874,1705.56 350.754,1709.26 356.648,1715.32L356.648,1680.99L372.776,1680.99L372.776,1777.47L356.648,1777.47L356.648,1769.29ZM356.648,1740.26C355.822,1728.16 347.748,1718.66 337.923,1718.66C327.551,1718.66 319.129,1729.26 319.129,1742.31C319.129,1755.35 327.551,1765.95 337.923,1765.95C347.748,1765.95 355.822,1756.44 356.648,1744.35L356.648,1740.26Z" style="fill:white;"/>
                    </g>
                </g>
            </g>
        </g>
    </g>
    <defs>
        <linearGradient id="_Linear1" x1="0" y1="0" x2="1" y2="0" gradientUnits="userSpaceOnUse" gradientTransform="matrix(99.7349,0,0,178.072,432.162,1136.54)"><stop offset="0" style="stop-color:rgb(104,40,223);stop-opacity:1"/><stop offset="0.46" style="stop-color:rgb(147,101,232);stop-opacity:1"/><stop offset="1" style="stop-color:white;stop-opacity:1"/></linearGradient>
        <linearGradient id="_Linear2" x1="0" y1="0" x2="1" y2="0" gradientUnits="userSpaceOnUse" gradientTransform="matrix(138.903,0,0,178.072,469.433,1136.54)"><stop offset="0" style="stop-color:rgb(104,40,223);stop-opacity:1"/><stop offset="1" style="stop-color:white;stop-opacity:1"/></linearGradient>
    </defs>
</svg>
