<?xml version="1.0" encoding="UTF-8" standalone="no"?>
<!DOCTYPE svg PUBLIC "-//W3C//DTD SVG 1.1//EN" "http://www.w3.org/Graphics/SVG/1.1/DTD/svg11.dtd">
<svg width="100%" height="100%" viewBox="0 0 260 37" version="1.1" xmlns="http://www.w3.org/2000/svg" xmlns:xlink="http://www.w3.org/1999/xlink" xml:space="preserve" xmlns:serif="http://www.serif.com/" style="fill-rule:evenodd;clip-rule:evenodd;stroke-linejoin:round;stroke-miterlimit:2;">
    <g transform="matrix(1,0,0,1,-471.308,0)">
        <g id="Logo-horizontal-W" serif:id="Logo horizontal W" transform="matrix(2.025,0,0,0.2875,471.308,0)">
            <rect x="0" y="0" width="128" height="128" style="fill:none;"/>
            <clipPath id="_clip1">
                <rect x="0" y="0" width="128" height="128"/>
            </clipPath>
            <g clip-path="url(#_clip1)">
                <g transform="matrix(1.21118,0,0,3.15456,-0.00973875,-165.027)">
                    <g id="mark" transform="matrix(0.721872,0,0,1.95217,25.0266,-82.1258)">
                        <g transform="matrix(1.01911,0,0,1.01911,6.2799,12.1893)">
                            <path d="M15.446,74.454C18.536,74.454 20.966,73.014 20.966,70.134C20.966,68.034 19.766,66.714 16.496,65.874L14.726,65.424C12.746,64.914 11.966,64.524 11.966,63.474C11.966,62.484 12.836,61.944 14.126,61.944C16.016,61.944 17.576,62.904 18.596,64.524L20.576,62.424C19.676,60.774 17.486,59.274 14.366,59.274C11.006,59.274 8.816,60.924 8.816,63.654C8.816,66.324 10.946,67.344 13.256,67.884L15.206,68.364C16.826,68.754 17.936,69.114 17.936,70.194C17.936,71.244 17.006,71.754 15.566,71.754C12.956,71.754 11.156,70.254 10.346,68.784L8.366,70.884C9.476,73.194 12.326,74.454 15.446,74.454Z" style="fill:white;fill-rule:nonzero;"/>
                        </g>
                        <g transform="matrix(1.01911,0,0,1.01911,6.38691,12.1893)">
                            <path d="M27.776,74.454C30.686,74.454 32.186,72.474 32.726,70.164L32.726,74.454L36.116,74.454L36.116,59.544L32.726,59.544L32.726,67.734C32.726,70.134 31.886,71.724 29.426,71.724C27.176,71.724 26.576,70.494 26.576,68.694L26.576,59.544L23.216,59.544L23.216,69.714C23.216,72.744 24.956,74.454 27.776,74.454Z" style="fill:white;fill-rule:nonzero;"/>
                        </g>
                        <g transform="matrix(1.01911,0,0,1.01911,6.59231,12.495)">
                            <rect x="55.256" y="59.244" width="3.36" height="14.91" style="fill:white;fill-rule:nonzero;"/>
                        </g>
                        <g transform="matrix(1.01911,0,0,1.01911,5.98466,12.495)">
                            <path d="M65.516,74.154L65.516,65.964C65.516,63.564 66.356,61.974 68.816,61.974C71.066,61.974 71.666,63.204 71.666,65.004L71.666,74.154L75.056,74.154L75.056,63.984C75.056,60.954 73.316,59.244 70.466,59.244C67.556,59.244 66.056,61.224 65.516,63.534L65.516,59.244L62.156,59.244L62.156,74.154L65.516,74.154Z" style="fill:white;fill-rule:nonzero;"/>
                        </g>
                        <g transform="matrix(1.01911,0,0,1.01911,5.36199,12.1587)">
                            <path d="M83.396,74.484L86.876,74.484L86.876,71.334L84.146,71.334C83.156,71.334 82.406,70.944 82.406,69.354L82.406,62.154L86.876,62.154L86.876,59.544L82.406,59.544L82.406,55.644L79.046,57.774L79.046,59.544L76.766,59.544L76.766,62.154L79.046,62.154L79.046,70.164C79.046,72.744 80.636,74.484 83.396,74.484Z" style="fill:white;fill-rule:nonzero;"/>
                        </g>
                        <g transform="matrix(1.39001,0,0,1.39001,-17.0145,-85.5842)">
                            <path d="M55.768,117.318C54.928,115.2 52.88,113.809 50.601,113.809C47.532,113.809 45.041,116.3 45.041,119.368C45.041,122.437 47.532,124.928 50.601,124.928C52.88,124.928 54.928,123.537 55.768,121.418L53.484,120.512C53.015,121.694 51.872,122.47 50.601,122.47C48.889,122.47 47.499,121.08 47.499,119.368C47.499,117.656 48.889,116.267 50.601,116.267C51.872,116.267 53.015,117.043 53.484,118.225L55.768,117.318Z" style="fill:white;"/>
                        </g>
                        <g transform="matrix(1.39001,0,0,1.39001,33.6905,-85.5842)">
                            <path d="M50.601,113.809C53.669,113.809 56.16,116.3 56.16,119.368C56.16,122.437 53.669,124.928 50.601,124.928C47.532,124.928 45.041,122.437 45.041,119.368C45.041,116.3 47.532,113.809 50.601,113.809ZM50.601,116.267C52.312,116.267 53.702,117.656 53.702,119.368C53.702,121.08 52.312,122.47 50.601,122.47C48.889,122.47 47.499,121.08 47.499,119.368C47.499,117.656 48.889,116.267 50.601,116.267Z" style="fill:white;"/>
                        </g>
                    </g>
                    <g id="symbol" transform="matrix(0.538318,0,0,1.45578,-17.4194,-17.0042)">
                        <path d="M54.359,50.489L69.859,50.489C76.758,50.489 82.359,56.09 82.359,62.989C82.359,69.888 76.758,75.489 69.859,75.489L32.359,75.489L32.359,70.516L54.359,50.489ZM69.859,53.91C64.848,53.91 60.78,57.978 60.78,62.989C60.78,68 64.848,72.068 69.859,72.068C74.87,72.068 78.938,68 78.938,62.989C78.938,57.978 74.87,53.91 69.859,53.91Z" style="fill:white;"/>
                    </g>
                </g>
            </g>
        </g>
    </g>
</svg>
