<?xml version="1.0" encoding="UTF-8" standalone="no"?>
<!DOCTYPE svg PUBLIC "-//W3C//DTD SVG 1.1//EN" "http://www.w3.org/Graphics/SVG/1.1/DTD/svg11.dtd">
<svg width="100%" height="100%" viewBox="0 0 128 128" version="1.1" xmlns="http://www.w3.org/2000/svg" xmlns:xlink="http://www.w3.org/1999/xlink" xml:space="preserve" xmlns:serif="http://www.serif.com/" style="fill-rule:evenodd;clip-rule:evenodd;stroke-linejoin:round;stroke-miterlimit:2;">
    <g transform="matrix(1,0,0,1,-4139.06,-463.3)">
        <g transform="matrix(0.256,0,0,0.256,4139.06,463.3)">
            <rect id="mask-icon" x="0" y="0" width="500" height="500" style="fill:none;"/>
            <clipPath id="_clip1">
                <rect id="mask-icon1" serif:id="mask-icon" x="0" y="0" width="500" height="500"/>
            </clipPath>
            <g clip-path="url(#_clip1)">
                <g transform="matrix(3.90625,0,0,3.90625,-16168.2,-1809.76)">
                    <path d="M4203.06,463.3C4238.38,463.3 4267.06,491.977 4267.06,527.3C4267.06,562.622 4238.38,591.3 4203.06,591.3C4167.74,591.3 4139.06,562.622 4139.06,527.3C4139.06,491.977 4167.74,463.3 4203.06,463.3ZM4192.69,500.066C4187.85,506.533 4184.75,516.335 4184.75,527.3C4184.75,546.755 4194.49,562.55 4206.49,562.55C4225.94,562.55 4241.74,546.755 4241.74,527.3C4241.74,507.844 4225.94,492.049 4206.49,492.049C4203.1,492.049 4199.9,493.306 4197.04,495.547C4194.05,493.397 4190.72,492.233 4187.25,492.233C4182.02,492.233 4177.13,494.866 4173.21,499.526C4167.92,505.819 4164.39,515.944 4164.39,527.392C4164.39,538.839 4167.92,548.965 4173.21,555.257C4177.13,559.917 4182.02,562.55 4187.25,562.55C4188.95,562.55 4190.34,561.164 4190.34,559.458C4190.34,557.751 4188.95,556.366 4187.25,556.366C4183.74,556.366 4180.57,554.401 4177.94,551.278C4173.42,545.896 4170.57,537.182 4170.57,527.392C4170.57,517.602 4173.42,508.887 4177.94,503.506C4180.57,500.382 4183.74,498.418 4187.25,498.418C4189.18,498.418 4191,499.012 4192.69,500.066ZM4202.05,554.308C4206.91,547.963 4210.11,538.276 4210.11,527.392C4210.11,516.433 4206.87,506.685 4201.95,500.353C4203.35,499.407 4204.86,498.847 4206.49,498.847C4210.6,498.847 4214.52,499.724 4218.05,501.3C4228,505.735 4234.94,515.713 4234.94,527.3C4234.94,543.003 4222.19,555.752 4206.49,555.752C4204.9,555.752 4203.42,555.217 4202.05,554.308ZM4197.61,504.864C4201.52,510.292 4203.93,518.387 4203.93,527.392C4203.93,536.35 4201.55,544.411 4197.68,549.83C4193.83,544.365 4191.55,536.266 4191.55,527.3C4191.55,518.385 4193.81,510.328 4197.61,504.864Z" style="fill:rgb(104,40,223);"/>
                </g>
            </g>
        </g>
    </g>
</svg>
